<?xml version="1.0" encoding="UTF-8" standalone="no"?>
<!DOCTYPE svg PUBLIC "-//W3C//DTD SVG 1.1//EN" "http://www.w3.org/Graphics/SVG/1.1/DTD/svg11.dtd">
<svg width="100%" height="100%" viewBox="0 0 275 127" version="1.1" xmlns="http://www.w3.org/2000/svg" xmlns:xlink="http://www.w3.org/1999/xlink" xml:space="preserve" xmlns:serif="http://www.serif.com/" style="fill-rule:evenodd;clip-rule:evenodd;stroke-linejoin:round;stroke-miterlimit:2;">
    <g transform="matrix(1,0,0,1,-1329.13,-795.3)">
        <g transform="matrix(1,0,0,1,1466.63,858.8)">
            <g transform="matrix(1,0,0,1,-137.5,-63.5)">
                <clipPath id="_clip1">
                    <rect x="0" y="0" width="275" height="127"/>
                </clipPath>
                <g clip-path="url(#_clip1)">
                    <g>
                        <path d="M27.069,82.605C19.076,79.941 10.685,72.401 6.433,65.399C-11.085,36.542 9.296,0.457 41.98,0.004C64.175,-0.28 80.304,15.141 84.528,33.283C87.079,44.281 84.726,56.187 79.765,64.407C76.477,69.821 75.088,70.87 71.233,74.81C70.241,75.802 67.18,78.07 65.847,78.892C63.693,80.253 62.021,81.046 59.583,82.209L59.838,85.61C60.546,85.695 64.317,84.561 65.394,84.306C67.293,83.881 69.249,83.541 71.233,83.286C73.671,82.946 82.26,82.237 84.386,82.861L84.414,86.716C67.151,86.205 51.731,90.769 38.805,101.456C37.643,102.42 36.48,103.298 35.517,104.234C31.406,108.202 27.608,112.568 24.575,117.472C21.91,121.809 23.526,120.987 18.055,120.93L19.529,118.18C16.241,118.067 12.244,122.574 5.384,120.278C4.307,119.938 2.153,119.002 1.359,118.492L1.359,114.58C4.477,114.58 6.49,118.124 11.706,116.706C13.321,116.253 14.654,115.346 16.269,114.807C18.254,114.127 19.926,114.042 22.109,114.127C22.392,113.475 23.526,111.887 23.951,111.349C20.209,109.223 15.872,112.284 12.811,113.163C8.134,114.524 4.959,112.851 1.359,111.235L1.359,107.295C2.89,107.267 5.441,108.968 7.198,109.421C9.806,110.101 11.592,109.506 13.69,108.599C19.359,106.161 20.89,106.275 26.474,107.976C27.154,107.465 27.891,106.558 28.345,105.708C26.106,105.198 24.66,103.837 22.024,103.497C14.087,102.448 14.37,110.045 1.359,103.95L1.387,99.925C5.498,100.549 7.567,104.064 13.123,101.569C17.998,99.358 19.841,98.791 25.68,100.322L25.907,97.572C24.546,96.382 21.655,95.9 19.416,96.183C17.063,96.495 15.674,97.572 13.661,98.281C9.75,99.698 4.534,98.82 1.359,96.58L1.359,92.64C3.032,92.753 5.271,94.227 6.943,94.738C13.576,96.75 16.383,89.465 26.247,93.264L26.446,90.514C25.227,89.465 22.08,88.672 20.011,88.813C15.532,89.182 10.487,94.879 1.359,89.267L1.359,85.355C2.833,85.327 5.498,87.084 7.142,87.509C14.115,89.324 15.816,81.897 26.814,86.205L27.069,82.605ZM33.306,36.713L53.375,36.713C53.063,31.638 48.698,27.557 43.397,27.528C37.954,27.528 33.674,31.638 33.306,36.713ZM54.055,63.046L53.517,55.478L38.238,55.478C39.428,56.016 40.817,56.81 42.065,57.377L50.002,61.147C51.362,61.771 52.723,62.536 54.055,63.046ZM41.384,51.538L45.268,51.509L45.324,41.333L45.324,40.794L44.616,40.624L42.376,40.653L41.384,40.653L41.384,51.538ZM28.713,62.394L29.224,55.535L26.304,55.45L26.332,51.538L29.394,51.538L29.394,40.624L26.361,40.653L26.304,36.741L29.365,36.713C29.819,29.824 34.893,24.637 41.384,23.815L41.384,20.13L45.324,20.073L45.324,23.673C46.742,24.325 48.329,24.382 50.002,25.261C54.197,27.472 56.918,31.412 57.343,36.656L60.376,36.713L60.405,40.653L57.428,40.653C57.173,41.56 57.202,50.432 57.4,51.538L60.405,51.538L60.405,55.478L57.513,55.478L57.939,61.572C59.044,61.062 61.822,57.916 62.616,56.725C67.18,49.809 68.455,41.701 65.252,33.793C56.89,13.043 27.211,13.752 19.898,34.955C17.29,42.552 18.764,51.538 23.668,57.661C24.858,59.135 26.984,61.516 28.713,62.394ZM49.265,51.481L53.375,51.538L53.375,40.653L49.265,40.653L49.265,51.481ZM30.131,94.313C32.257,95.22 34.524,96.552 36.594,97.374C38.011,97.941 39.712,95.191 42.433,94.001C41.838,93.377 30.981,88.388 30.584,88.388L30.131,94.313ZM32.54,63.5C34.439,64.35 53.772,73.761 54.934,74.045L54.452,67.582L33.05,57.462L32.54,63.5ZM28.005,70.501L28.345,66.873C25.397,65.711 21.372,61.346 19.416,58.483C7.369,40.738 19.359,15.254 41.98,14.659C55.756,14.319 65.989,23.418 69.419,33.651C73.047,44.479 69.787,56.782 61.595,63.755L58.364,66.335L58.591,69.821C61.198,69.283 67.066,63.131 68.852,60.353C83.252,38.13 66.726,10.719 41.98,11.399C26.984,11.824 15.306,22.596 12.329,35.068C8.361,51.821 17.772,65.399 28.005,70.501ZM29.535,102.079C31.095,102.788 31.576,102.816 33.306,101.002C33.362,100.974 33.476,100.832 33.532,100.776C33.816,100.379 33.504,100.946 33.816,100.322C32.682,99.982 30.896,98.735 29.791,98.65L29.535,102.079ZM31.746,73.761C33.702,74.64 35.602,75.632 37.614,76.568C40.562,77.9 54.169,84.618 55.813,85.072L55.104,78.665L32.2,67.837L31.746,73.761ZM27.438,78.467L27.693,75.065C21.598,72.741 14.965,66.079 11.734,60.297C7.709,53.097 6.008,44.394 8.021,34.983C13.123,10.946 42.745,-2.179 64.969,14.914C69.986,18.769 74.776,24.977 77.214,33.538C81.268,47.711 75.372,63.075 63.92,71.522C62.332,72.713 60.773,73.421 59.044,74.612L59.214,77.957C62.276,77.106 67.435,72.911 69.306,71.267C72.083,68.857 74.748,65.059 76.732,61.771C81.154,54.372 82.855,43.374 80.616,33.764C76.846,17.692 61.935,3.661 42.178,3.944C12.272,4.398 -5.642,36.939 9.324,62.536C12.386,67.78 16.865,72.372 21.74,75.49C23.072,76.341 25.709,77.957 27.438,78.467ZM33.334,51.538L37.302,51.538C37.671,50.262 37.444,42.552 37.416,40.653L33.334,40.653L33.334,51.538ZM30.953,84.023C33.334,85.327 39.088,87.878 41.895,89.21C44.276,90.344 46.033,91.705 47.45,90.968C48.924,90.202 51.334,88.813 52.95,88.388C52.921,88.331 52.865,88.218 52.836,88.246L47.677,85.667C45.806,84.816 44.021,83.909 42.178,83.087C40.562,82.35 32.37,78.155 31.406,78.098L30.953,84.023Z" style="fill:white;"/>
                        <path d="M25.879,120.958C31.548,120.987 29.791,121.61 32.313,118.152C34.383,115.374 36.934,112.199 39.457,109.96C40.307,109.166 41.271,108.316 42.093,107.55C44.446,105.396 48.414,102.76 51.192,101.144C60.603,95.701 71.573,93.094 84.386,93.547L84.386,89.607C68.682,88.672 52.128,94.029 41.611,102.845L35.687,108.202C33.787,110.045 31.888,112.029 30.358,114.183C29.195,115.827 26.644,119.031 25.879,120.958Z" style="fill:white;"/>
                        <path d="M33.929,120.958C34.865,120.958 38.153,121.27 38.89,120.703L44.984,114.098C56.833,103.922 67.18,99.897 84.414,100.35L84.386,96.41C69.277,95.787 59.044,99.216 47.876,106.672C45.324,108.372 42.405,110.98 40.279,113.191C38.465,115.062 34.921,118.832 33.929,120.958Z" style="fill:white;"/>
                        <path d="M42.461,120.901C43.539,121.072 44.701,120.958 45.806,120.987C47.706,120.987 47.394,121.128 48.386,120.136C49.038,119.484 49.576,119.087 50.228,118.52C50.965,117.897 51.391,117.443 52.184,116.848C54.65,114.92 57.513,113.05 60.773,111.519C68.172,108.032 75.003,106.643 84.414,107.182L84.414,103.44L83.904,103.242C81.296,102.618 73.104,103.582 70.808,104.035C59.016,106.416 50.002,112.171 42.461,120.901Z" style="fill:white;"/>
                        <path d="M51.872,120.93C53.346,121.043 57.542,121.355 58.704,120.561C59.328,120.136 59.639,119.909 60.291,119.513C68.03,114.807 75.032,113.588 84.414,114.013L84.414,110.045C71.488,109.506 61.17,112.539 51.872,120.93Z" style="fill:white;"/>
                        <path d="M64.458,120.958L84.414,120.987L84.386,117.33C82.09,116.593 75.627,117.33 73.274,117.783C71.687,118.095 70.213,118.52 68.71,119.059C67.888,119.342 65.139,120.335 64.458,120.958Z" style="fill:white;"/>
                        <g transform="matrix(0.524541,0,0,0.524541,59.2685,-201.029)">
                            <g transform="matrix(63.9361,0,0,63.9361,78.4571,578.413)">
                                <path d="M0.385,0.01C0.318,0.01 0.259,-0.005 0.206,-0.033C0.153,-0.062 0.111,-0.104 0.08,-0.159C0.05,-0.215 0.034,-0.283 0.034,-0.363C0.034,-0.444 0.05,-0.513 0.081,-0.568C0.112,-0.624 0.154,-0.666 0.208,-0.695C0.261,-0.723 0.32,-0.737 0.385,-0.737C0.43,-0.737 0.472,-0.731 0.51,-0.719C0.548,-0.707 0.582,-0.689 0.611,-0.666C0.64,-0.642 0.663,-0.613 0.681,-0.579C0.699,-0.545 0.71,-0.506 0.715,-0.462L0.515,-0.462C0.513,-0.478 0.509,-0.492 0.502,-0.504C0.496,-0.517 0.487,-0.528 0.477,-0.537C0.467,-0.546 0.454,-0.553 0.44,-0.558C0.425,-0.563 0.409,-0.565 0.391,-0.565C0.358,-0.565 0.33,-0.557 0.307,-0.541C0.284,-0.525 0.267,-0.502 0.255,-0.472C0.243,-0.442 0.237,-0.406 0.237,-0.363C0.237,-0.319 0.243,-0.282 0.255,-0.252C0.267,-0.222 0.285,-0.2 0.307,-0.185C0.33,-0.17 0.357,-0.162 0.39,-0.162C0.408,-0.162 0.424,-0.165 0.438,-0.169C0.453,-0.174 0.465,-0.181 0.476,-0.19C0.487,-0.2 0.496,-0.21 0.502,-0.223C0.509,-0.236 0.513,-0.25 0.516,-0.266L0.716,-0.266C0.714,-0.235 0.705,-0.203 0.69,-0.171C0.675,-0.139 0.654,-0.109 0.627,-0.082C0.599,-0.054 0.565,-0.032 0.525,-0.015C0.485,0.001 0.438,0.01 0.385,0.01Z" style="fill:white;fill-rule:nonzero;"/>
                            </g>
                            <g transform="matrix(63.9361,0,0,63.9361,126.253,578.413)">
                                <path d="M0.047,-0L0.047,-0.728L0.571,-0.728L0.571,-0.568L0.244,-0.568L0.244,-0.445L0.544,-0.445L0.544,-0.29L0.244,-0.29L0.244,-0.159L0.569,-0.159L0.569,0L0.047,0Z" style="fill:white;fill-rule:nonzero;"/>
                            </g>
                            <g transform="matrix(63.9361,0,0,63.9361,165.433,578.413)">
                                <path d="M0.047,-0L0.047,-0.728L0.36,-0.728C0.414,-0.728 0.462,-0.718 0.502,-0.698C0.543,-0.678 0.574,-0.65 0.597,-0.613C0.62,-0.576 0.631,-0.532 0.631,-0.48C0.631,-0.428 0.619,-0.384 0.596,-0.349C0.573,-0.313 0.541,-0.286 0.499,-0.268C0.457,-0.249 0.409,-0.24 0.354,-0.24L0.166,-0.24L0.166,-0.394L0.313,-0.394C0.337,-0.394 0.357,-0.396 0.374,-0.402C0.39,-0.408 0.403,-0.417 0.412,-0.43C0.42,-0.443 0.425,-0.46 0.425,-0.48C0.425,-0.501 0.42,-0.518 0.412,-0.531C0.403,-0.544 0.39,-0.554 0.374,-0.56C0.357,-0.566 0.337,-0.569 0.313,-0.569L0.244,-0.569L0.244,-0L0.047,-0ZM0.44,-0L0.263,-0.334L0.473,-0.334L0.655,0L0.44,0Z" style="fill:white;fill-rule:nonzero;"/>
                            </g>
                            <g transform="matrix(63.9361,0,0,63.9361,208.14,578.413)">
                                <path d="M0.027,-0.568L0.027,-0.728L0.659,-0.728L0.659,-0.568L0.442,-0.568L0.442,0L0.245,0L0.245,-0.568L0.027,-0.568Z" style="fill:white;fill-rule:nonzero;"/>
                            </g>
                            <g transform="matrix(63.9361,0,0,63.9361,252.034,578.413)">
                                <rect x="0.047" y="-0.728" width="0.197" height="0.728" style="fill:white;"/>
                            </g>
                            <g transform="matrix(63.9361,0,0,63.9361,270.64,578.413)">
                                <path d="M0.047,-0L0.047,-0.728L0.559,-0.728L0.559,-0.568L0.244,-0.568L0.244,-0.404L0.527,-0.404L0.527,-0.249L0.244,-0.249L0.244,0L0.047,0Z" style="fill:white;fill-rule:nonzero;"/>
                            </g>
                            <g transform="matrix(63.9361,0,0,63.9361,307.978,578.413)">
                                <rect x="0.047" y="-0.728" width="0.197" height="0.728" style="fill:white;"/>
                            </g>
                            <g transform="matrix(63.9361,0,0,63.9361,326.584,578.413)">
                                <path d="M0.047,-0L0.047,-0.728L0.571,-0.728L0.571,-0.568L0.244,-0.568L0.244,-0.445L0.544,-0.445L0.544,-0.29L0.244,-0.29L0.244,-0.159L0.569,-0.159L0.569,0L0.047,0Z" style="fill:white;fill-rule:nonzero;"/>
                            </g>
                            <g transform="matrix(63.9361,0,0,63.9361,365.764,578.413)">
                                <path d="M0.327,-0L0.128,-0L0.128,-0.168L0.319,-0.168C0.355,-0.168 0.386,-0.174 0.412,-0.185C0.437,-0.196 0.457,-0.216 0.47,-0.245C0.484,-0.273 0.49,-0.313 0.49,-0.363C0.49,-0.414 0.483,-0.454 0.47,-0.482C0.456,-0.511 0.436,-0.531 0.41,-0.542C0.384,-0.554 0.352,-0.56 0.313,-0.56L0.125,-0.56L0.125,-0.728L0.324,-0.728C0.399,-0.728 0.464,-0.713 0.518,-0.684C0.572,-0.655 0.614,-0.613 0.644,-0.559C0.674,-0.504 0.688,-0.439 0.688,-0.363C0.688,-0.288 0.674,-0.223 0.644,-0.168C0.615,-0.114 0.573,-0.072 0.519,-0.043C0.465,-0.014 0.401,-0 0.327,-0ZM0.244,-0.728L0.244,0L0.047,0L0.047,-0.728L0.244,-0.728Z" style="fill:white;fill-rule:nonzero;"/>
                            </g>
                            <g transform="matrix(38.1285,0,0,38.1285,78.4571,616.542)">
                                <path d="M0.096,-0L0.096,-0.728L0.52,-0.728L0.52,-0.665L0.166,-0.665L0.166,-0.389L0.486,-0.389L0.486,-0.327L0.166,-0.327L0.166,0L0.096,0Z" style="fill:white;fill-rule:nonzero;"/>
                            </g>
                            <g transform="matrix(38.1285,0,0,38.1285,100.891,616.542)">
                                <path d="M0.084,-0L0.084,-0.546L0.15,-0.546L0.15,0L0.084,0ZM0.117,-0.647C0.104,-0.647 0.093,-0.652 0.083,-0.661C0.073,-0.67 0.069,-0.681 0.069,-0.693C0.069,-0.706 0.073,-0.717 0.083,-0.726C0.093,-0.735 0.104,-0.74 0.117,-0.74C0.13,-0.74 0.142,-0.735 0.151,-0.726C0.161,-0.717 0.166,-0.706 0.166,-0.693C0.166,-0.681 0.161,-0.67 0.151,-0.661C0.142,-0.652 0.13,-0.647 0.117,-0.647Z" style="fill:white;fill-rule:nonzero;"/>
                            </g>
                            <g transform="matrix(38.1285,0,0,38.1285,109.79,616.542)">
                                <path d="M0.279,0.012C0.235,0.012 0.196,0 0.162,-0.024C0.128,-0.047 0.102,-0.08 0.083,-0.123C0.064,-0.165 0.055,-0.215 0.055,-0.271C0.055,-0.328 0.064,-0.377 0.083,-0.419C0.102,-0.462 0.129,-0.494 0.162,-0.518C0.196,-0.541 0.235,-0.553 0.279,-0.553C0.313,-0.553 0.34,-0.547 0.362,-0.535C0.384,-0.524 0.402,-0.509 0.416,-0.492C0.429,-0.475 0.44,-0.458 0.447,-0.441L0.452,-0.441L0.452,-0.728L0.518,-0.728L0.518,0L0.454,0L0.454,-0.102L0.447,-0.102C0.44,-0.085 0.429,-0.068 0.415,-0.05C0.402,-0.033 0.384,-0.018 0.362,-0.006C0.34,0.006 0.312,0.012 0.279,0.012ZM0.288,-0.048C0.323,-0.048 0.353,-0.058 0.377,-0.077C0.402,-0.096 0.421,-0.123 0.433,-0.157C0.446,-0.19 0.453,-0.229 0.453,-0.272C0.453,-0.315 0.446,-0.354 0.434,-0.387C0.421,-0.42 0.402,-0.446 0.377,-0.465C0.353,-0.484 0.323,-0.493 0.288,-0.493C0.252,-0.493 0.222,-0.483 0.197,-0.464C0.172,-0.444 0.154,-0.418 0.141,-0.385C0.128,-0.351 0.122,-0.314 0.122,-0.272C0.122,-0.23 0.128,-0.193 0.141,-0.159C0.154,-0.125 0.173,-0.098 0.198,-0.078C0.222,-0.058 0.252,-0.048 0.288,-0.048Z" style="fill:white;fill-rule:nonzero;"/>
                            </g>
                            <g transform="matrix(38.1285,0,0,38.1285,132.746,616.542)">
                                <path d="M0.271,0.007C0.234,0.007 0.201,-0.001 0.173,-0.016C0.145,-0.031 0.123,-0.054 0.107,-0.084C0.092,-0.113 0.084,-0.15 0.084,-0.193L0.084,-0.546L0.15,-0.546L0.15,-0.198C0.15,-0.153 0.162,-0.118 0.187,-0.092C0.213,-0.066 0.246,-0.053 0.288,-0.053C0.317,-0.053 0.342,-0.059 0.365,-0.072C0.388,-0.084 0.406,-0.101 0.419,-0.124C0.432,-0.147 0.439,-0.174 0.439,-0.206L0.439,-0.546L0.505,-0.546L0.505,0L0.441,0L0.441,-0.127L0.451,-0.127C0.436,-0.079 0.412,-0.045 0.38,-0.024C0.347,-0.003 0.311,0.007 0.271,0.007Z" style="fill:white;fill-rule:nonzero;"/>
                            </g>
                            <g transform="matrix(38.1285,0,0,38.1285,155.198,616.542)">
                                <path d="M0.296,0.01C0.249,0.01 0.207,-0.001 0.171,-0.025C0.135,-0.049 0.106,-0.082 0.086,-0.124C0.065,-0.167 0.055,-0.215 0.055,-0.271C0.055,-0.327 0.065,-0.376 0.086,-0.418C0.106,-0.461 0.135,-0.494 0.171,-0.517C0.207,-0.541 0.249,-0.553 0.296,-0.553C0.324,-0.553 0.349,-0.549 0.372,-0.541C0.396,-0.533 0.416,-0.522 0.434,-0.509C0.452,-0.495 0.467,-0.48 0.479,-0.464C0.491,-0.447 0.499,-0.431 0.505,-0.414L0.442,-0.395C0.439,-0.405 0.434,-0.415 0.426,-0.427C0.418,-0.438 0.408,-0.449 0.396,-0.459C0.384,-0.469 0.369,-0.477 0.353,-0.484C0.336,-0.49 0.317,-0.493 0.296,-0.493C0.259,-0.493 0.228,-0.483 0.202,-0.463C0.176,-0.443 0.156,-0.416 0.142,-0.382C0.129,-0.349 0.122,-0.312 0.122,-0.271C0.122,-0.23 0.129,-0.193 0.142,-0.16C0.156,-0.126 0.176,-0.099 0.202,-0.079C0.228,-0.059 0.259,-0.049 0.296,-0.049C0.317,-0.049 0.336,-0.053 0.353,-0.059C0.37,-0.066 0.385,-0.074 0.398,-0.084C0.41,-0.095 0.42,-0.106 0.428,-0.118C0.436,-0.129 0.441,-0.141 0.444,-0.151L0.507,-0.132C0.502,-0.114 0.493,-0.098 0.481,-0.081C0.469,-0.064 0.454,-0.049 0.436,-0.035C0.417,-0.021 0.397,-0.01 0.373,-0.002C0.35,0.006 0.324,0.01 0.296,0.01Z" style="fill:white;fill-rule:nonzero;"/>
                            </g>
                            <g transform="matrix(38.1285,0,0,38.1285,176.515,616.542)">
                                <path d="M0.084,-0L0.084,-0.546L0.15,-0.546L0.15,0L0.084,0ZM0.117,-0.647C0.104,-0.647 0.093,-0.652 0.083,-0.661C0.073,-0.67 0.069,-0.681 0.069,-0.693C0.069,-0.706 0.073,-0.717 0.083,-0.726C0.093,-0.735 0.104,-0.74 0.117,-0.74C0.13,-0.74 0.142,-0.735 0.151,-0.726C0.161,-0.717 0.166,-0.706 0.166,-0.693C0.166,-0.681 0.161,-0.67 0.151,-0.661C0.142,-0.652 0.13,-0.647 0.117,-0.647Z" style="fill:white;fill-rule:nonzero;"/>
                            </g>
                            <g transform="matrix(38.1285,0,0,38.1285,185.414,616.542)">
                                <path d="M0.227,0.012C0.194,0.012 0.164,0.006 0.137,-0.007C0.109,-0.02 0.088,-0.038 0.071,-0.063C0.055,-0.088 0.047,-0.118 0.047,-0.153C0.047,-0.18 0.052,-0.202 0.062,-0.221C0.073,-0.239 0.087,-0.254 0.106,-0.266C0.125,-0.278 0.147,-0.288 0.173,-0.295C0.198,-0.301 0.227,-0.307 0.257,-0.311C0.288,-0.314 0.313,-0.318 0.334,-0.32C0.355,-0.323 0.372,-0.328 0.383,-0.334C0.394,-0.34 0.4,-0.35 0.4,-0.364L0.4,-0.376C0.4,-0.401 0.395,-0.422 0.385,-0.439C0.375,-0.457 0.361,-0.47 0.342,-0.48C0.323,-0.489 0.299,-0.494 0.272,-0.494C0.246,-0.494 0.223,-0.49 0.204,-0.482C0.184,-0.474 0.168,-0.464 0.155,-0.451C0.142,-0.438 0.133,-0.424 0.126,-0.409L0.063,-0.43C0.075,-0.46 0.092,-0.484 0.114,-0.502C0.136,-0.52 0.16,-0.533 0.187,-0.541C0.215,-0.549 0.242,-0.553 0.271,-0.553C0.292,-0.553 0.314,-0.55 0.337,-0.545C0.36,-0.539 0.381,-0.529 0.4,-0.516C0.42,-0.502 0.436,-0.484 0.448,-0.46C0.46,-0.436 0.466,-0.407 0.466,-0.37L0.466,-0L0.401,-0L0.401,-0.086L0.396,-0.086C0.388,-0.07 0.377,-0.054 0.361,-0.039C0.346,-0.024 0.327,-0.011 0.305,-0.002C0.283,0.008 0.257,0.012 0.227,0.012ZM0.237,-0.047C0.27,-0.047 0.299,-0.054 0.323,-0.069C0.348,-0.084 0.366,-0.103 0.38,-0.128C0.393,-0.153 0.4,-0.18 0.4,-0.209L0.4,-0.287C0.395,-0.283 0.387,-0.279 0.376,-0.275C0.365,-0.271 0.352,-0.268 0.338,-0.266C0.324,-0.263 0.31,-0.261 0.295,-0.259C0.281,-0.257 0.269,-0.255 0.258,-0.254C0.227,-0.25 0.201,-0.244 0.18,-0.236C0.158,-0.228 0.142,-0.217 0.131,-0.203C0.119,-0.189 0.114,-0.171 0.114,-0.15C0.114,-0.128 0.119,-0.11 0.13,-0.094C0.14,-0.079 0.155,-0.067 0.174,-0.059C0.192,-0.051 0.213,-0.047 0.237,-0.047Z" style="fill:white;fill-rule:nonzero;"/>
                            </g>
                            <g transform="matrix(38.1285,0,0,38.1285,206.359,616.542)">
                                <path d="M0.084,-0L0.084,-0.546L0.148,-0.546L0.148,-0.461L0.153,-0.461C0.164,-0.489 0.183,-0.511 0.21,-0.528C0.237,-0.545 0.267,-0.553 0.301,-0.553L0.319,-0.553C0.325,-0.553 0.331,-0.553 0.335,-0.552L0.335,-0.486C0.333,-0.486 0.328,-0.487 0.32,-0.488C0.313,-0.489 0.305,-0.489 0.296,-0.489C0.268,-0.489 0.243,-0.483 0.221,-0.471C0.199,-0.459 0.181,-0.443 0.169,-0.422C0.156,-0.401 0.15,-0.377 0.15,-0.35L0.15,-0L0.084,-0Z" style="fill:white;fill-rule:nonzero;"/>
                            </g>
                            <g transform="matrix(38.1285,0,0,38.1285,220.657,616.542)">
                                <path d="M0.067,0.197L0.085,0.139L0.093,0.142C0.113,0.148 0.13,0.149 0.146,0.147C0.162,0.144 0.176,0.136 0.189,0.123C0.202,0.11 0.212,0.09 0.222,0.064L0.243,0.004L0.034,-0.546L0.106,-0.546L0.232,-0.203C0.244,-0.172 0.254,-0.141 0.262,-0.11C0.271,-0.079 0.28,-0.049 0.289,-0.019L0.266,-0.019C0.275,-0.049 0.284,-0.079 0.293,-0.11C0.302,-0.141 0.312,-0.172 0.324,-0.203L0.45,-0.546L0.522,-0.546L0.28,0.089C0.269,0.116 0.257,0.138 0.243,0.156C0.228,0.173 0.212,0.186 0.193,0.195C0.175,0.204 0.154,0.208 0.131,0.208C0.117,0.208 0.105,0.207 0.094,0.205C0.083,0.202 0.074,0.2 0.067,0.197Z" style="fill:white;fill-rule:nonzero;"/>
                            </g>
                            <g transform="matrix(38.1285,0,0,38.1285,258.28,616.542)">
                                <path d="M0.315,0.012C0.265,0.012 0.222,0.004 0.185,-0.012C0.149,-0.029 0.12,-0.052 0.099,-0.081C0.078,-0.111 0.066,-0.145 0.063,-0.184L0.134,-0.184C0.137,-0.155 0.146,-0.131 0.163,-0.111C0.179,-0.091 0.201,-0.076 0.227,-0.066C0.254,-0.056 0.283,-0.051 0.315,-0.051C0.351,-0.051 0.383,-0.057 0.411,-0.069C0.439,-0.081 0.461,-0.098 0.477,-0.119C0.493,-0.141 0.501,-0.166 0.501,-0.195C0.501,-0.219 0.494,-0.239 0.482,-0.256C0.469,-0.272 0.452,-0.286 0.429,-0.297C0.406,-0.309 0.38,-0.319 0.349,-0.327L0.263,-0.353C0.205,-0.37 0.161,-0.393 0.129,-0.424C0.098,-0.454 0.083,-0.493 0.083,-0.539C0.083,-0.578 0.093,-0.613 0.114,-0.643C0.135,-0.673 0.164,-0.696 0.2,-0.713C0.236,-0.729 0.276,-0.738 0.321,-0.738C0.367,-0.738 0.407,-0.729 0.442,-0.712C0.477,-0.696 0.505,-0.673 0.526,-0.644C0.546,-0.615 0.557,-0.582 0.559,-0.545L0.491,-0.545C0.487,-0.585 0.469,-0.617 0.438,-0.64C0.406,-0.664 0.367,-0.675 0.319,-0.675C0.286,-0.675 0.257,-0.67 0.231,-0.658C0.206,-0.647 0.186,-0.631 0.172,-0.611C0.158,-0.59 0.15,-0.567 0.15,-0.542C0.15,-0.517 0.157,-0.496 0.172,-0.479C0.186,-0.462 0.204,-0.448 0.226,-0.437C0.248,-0.427 0.271,-0.418 0.294,-0.411L0.37,-0.389C0.394,-0.383 0.417,-0.374 0.44,-0.364C0.464,-0.354 0.485,-0.341 0.504,-0.326C0.524,-0.311 0.539,-0.293 0.551,-0.271C0.563,-0.25 0.568,-0.224 0.568,-0.194C0.568,-0.155 0.558,-0.12 0.538,-0.088C0.518,-0.057 0.489,-0.033 0.451,-0.015C0.413,0.003 0.368,0.012 0.315,0.012Z" style="fill:white;fill-rule:nonzero;"/>
                            </g>
                            <g transform="matrix(38.1285,0,0,38.1285,282.371,616.542)">
                                <path d="M0.305,0.012C0.254,0.012 0.209,0 0.172,-0.024C0.135,-0.048 0.106,-0.081 0.086,-0.123C0.065,-0.166 0.055,-0.214 0.055,-0.27C0.055,-0.325 0.065,-0.374 0.085,-0.416C0.105,-0.459 0.133,-0.492 0.169,-0.517C0.205,-0.541 0.247,-0.553 0.294,-0.553C0.324,-0.553 0.353,-0.548 0.381,-0.537C0.409,-0.526 0.434,-0.509 0.456,-0.487C0.478,-0.465 0.495,-0.436 0.508,-0.402C0.521,-0.368 0.527,-0.328 0.527,-0.282L0.527,-0.253L0.099,-0.253L0.099,-0.31L0.491,-0.31L0.461,-0.288C0.461,-0.327 0.454,-0.362 0.441,-0.393C0.428,-0.424 0.409,-0.449 0.384,-0.467C0.359,-0.485 0.329,-0.493 0.294,-0.493C0.26,-0.493 0.23,-0.484 0.204,-0.466C0.178,-0.448 0.158,-0.424 0.143,-0.394C0.129,-0.364 0.122,-0.331 0.122,-0.295L0.122,-0.261C0.122,-0.219 0.129,-0.181 0.144,-0.149C0.159,-0.117 0.18,-0.092 0.208,-0.074C0.235,-0.057 0.268,-0.048 0.305,-0.048C0.331,-0.048 0.353,-0.052 0.372,-0.06C0.392,-0.068 0.408,-0.079 0.421,-0.092C0.434,-0.106 0.444,-0.121 0.451,-0.137L0.514,-0.117C0.505,-0.094 0.492,-0.073 0.473,-0.053C0.454,-0.034 0.431,-0.018 0.402,-0.006C0.374,0.006 0.341,0.012 0.305,0.012Z" style="fill:white;fill-rule:nonzero;"/>
                            </g>
                            <g transform="matrix(38.1285,0,0,38.1285,304.47,616.542)">
                                <path d="M0.084,-0L0.084,-0.546L0.148,-0.546L0.148,-0.461L0.153,-0.461C0.164,-0.489 0.183,-0.511 0.21,-0.528C0.237,-0.545 0.267,-0.553 0.301,-0.553L0.319,-0.553C0.325,-0.553 0.331,-0.553 0.335,-0.552L0.335,-0.486C0.333,-0.486 0.328,-0.487 0.32,-0.488C0.313,-0.489 0.305,-0.489 0.296,-0.489C0.268,-0.489 0.243,-0.483 0.221,-0.471C0.199,-0.459 0.181,-0.443 0.169,-0.422C0.156,-0.401 0.15,-0.377 0.15,-0.35L0.15,-0L0.084,-0Z" style="fill:white;fill-rule:nonzero;"/>
                            </g>
                            <g transform="matrix(38.1285,0,0,38.1285,318.768,616.542)">
                                <path d="M0.242,-0L0.034,-0.546L0.106,-0.546L0.232,-0.203C0.243,-0.172 0.253,-0.142 0.262,-0.111C0.271,-0.08 0.28,-0.051 0.29,-0.021L0.266,-0.021C0.276,-0.051 0.285,-0.08 0.294,-0.111C0.303,-0.142 0.313,-0.172 0.324,-0.203L0.45,-0.546L0.522,-0.546L0.314,0L0.242,0Z" style="fill:white;fill-rule:nonzero;"/>
                            </g>
                            <g transform="matrix(38.1285,0,0,38.1285,339.974,616.542)">
                                <path d="M0.084,-0L0.084,-0.546L0.15,-0.546L0.15,0L0.084,0ZM0.117,-0.647C0.104,-0.647 0.093,-0.652 0.083,-0.661C0.073,-0.67 0.069,-0.681 0.069,-0.693C0.069,-0.706 0.073,-0.717 0.083,-0.726C0.093,-0.735 0.104,-0.74 0.117,-0.74C0.13,-0.74 0.142,-0.735 0.151,-0.726C0.161,-0.717 0.166,-0.706 0.166,-0.693C0.166,-0.681 0.161,-0.67 0.151,-0.661C0.142,-0.652 0.13,-0.647 0.117,-0.647Z" style="fill:white;fill-rule:nonzero;"/>
                            </g>
                            <g transform="matrix(38.1285,0,0,38.1285,348.873,616.542)">
                                <path d="M0.296,0.01C0.249,0.01 0.207,-0.001 0.171,-0.025C0.135,-0.049 0.106,-0.082 0.086,-0.124C0.065,-0.167 0.055,-0.215 0.055,-0.271C0.055,-0.327 0.065,-0.376 0.086,-0.418C0.106,-0.461 0.135,-0.494 0.171,-0.517C0.207,-0.541 0.249,-0.553 0.296,-0.553C0.324,-0.553 0.349,-0.549 0.372,-0.541C0.396,-0.533 0.416,-0.522 0.434,-0.509C0.452,-0.495 0.467,-0.48 0.479,-0.464C0.491,-0.447 0.499,-0.431 0.505,-0.414L0.442,-0.395C0.439,-0.405 0.434,-0.415 0.426,-0.427C0.418,-0.438 0.408,-0.449 0.396,-0.459C0.384,-0.469 0.369,-0.477 0.353,-0.484C0.336,-0.49 0.317,-0.493 0.296,-0.493C0.259,-0.493 0.228,-0.483 0.202,-0.463C0.176,-0.443 0.156,-0.416 0.142,-0.382C0.129,-0.349 0.122,-0.312 0.122,-0.271C0.122,-0.23 0.129,-0.193 0.142,-0.16C0.156,-0.126 0.176,-0.099 0.202,-0.079C0.228,-0.059 0.259,-0.049 0.296,-0.049C0.317,-0.049 0.336,-0.053 0.353,-0.059C0.37,-0.066 0.385,-0.074 0.398,-0.084C0.41,-0.095 0.42,-0.106 0.428,-0.118C0.436,-0.129 0.441,-0.141 0.444,-0.151L0.507,-0.132C0.502,-0.114 0.493,-0.098 0.481,-0.081C0.469,-0.064 0.454,-0.049 0.436,-0.035C0.417,-0.021 0.397,-0.01 0.373,-0.002C0.35,0.006 0.324,0.01 0.296,0.01Z" style="fill:white;fill-rule:nonzero;"/>
                            </g>
                            <g transform="matrix(38.1285,0,0,38.1285,370.19,616.542)">
                                <path d="M0.305,0.012C0.254,0.012 0.209,0 0.172,-0.024C0.135,-0.048 0.106,-0.081 0.086,-0.123C0.065,-0.166 0.055,-0.214 0.055,-0.27C0.055,-0.325 0.065,-0.374 0.085,-0.416C0.105,-0.459 0.133,-0.492 0.169,-0.517C0.205,-0.541 0.247,-0.553 0.294,-0.553C0.324,-0.553 0.353,-0.548 0.381,-0.537C0.409,-0.526 0.434,-0.509 0.456,-0.487C0.478,-0.465 0.495,-0.436 0.508,-0.402C0.521,-0.368 0.527,-0.328 0.527,-0.282L0.527,-0.253L0.099,-0.253L0.099,-0.31L0.491,-0.31L0.461,-0.288C0.461,-0.327 0.454,-0.362 0.441,-0.393C0.428,-0.424 0.409,-0.449 0.384,-0.467C0.359,-0.485 0.329,-0.493 0.294,-0.493C0.26,-0.493 0.23,-0.484 0.204,-0.466C0.178,-0.448 0.158,-0.424 0.143,-0.394C0.129,-0.364 0.122,-0.331 0.122,-0.295L0.122,-0.261C0.122,-0.219 0.129,-0.181 0.144,-0.149C0.159,-0.117 0.18,-0.092 0.208,-0.074C0.235,-0.057 0.268,-0.048 0.305,-0.048C0.331,-0.048 0.353,-0.052 0.372,-0.06C0.392,-0.068 0.408,-0.079 0.421,-0.092C0.434,-0.106 0.444,-0.121 0.451,-0.137L0.514,-0.117C0.505,-0.094 0.492,-0.073 0.473,-0.053C0.454,-0.034 0.431,-0.018 0.402,-0.006C0.374,0.006 0.341,0.012 0.305,0.012Z" style="fill:white;fill-rule:nonzero;"/>
                            </g>
                            <g transform="matrix(38.1285,0,0,38.1285,392.289,616.542)">
                                <path d="M0.257,0.012C0.221,0.012 0.19,0.006 0.162,-0.005C0.134,-0.015 0.112,-0.031 0.094,-0.052C0.076,-0.074 0.064,-0.099 0.057,-0.13L0.12,-0.145C0.128,-0.112 0.144,-0.088 0.167,-0.071C0.191,-0.055 0.22,-0.047 0.257,-0.047C0.298,-0.047 0.331,-0.057 0.356,-0.075C0.38,-0.094 0.393,-0.117 0.393,-0.145C0.393,-0.167 0.386,-0.185 0.371,-0.2C0.356,-0.214 0.334,-0.225 0.304,-0.232L0.215,-0.254C0.169,-0.265 0.133,-0.283 0.11,-0.307C0.087,-0.332 0.075,-0.362 0.075,-0.399C0.075,-0.429 0.083,-0.456 0.1,-0.479C0.116,-0.502 0.139,-0.521 0.168,-0.534C0.197,-0.547 0.229,-0.553 0.266,-0.553C0.301,-0.553 0.33,-0.548 0.355,-0.537C0.38,-0.527 0.4,-0.512 0.416,-0.493C0.432,-0.473 0.444,-0.451 0.453,-0.424L0.392,-0.409C0.384,-0.434 0.369,-0.454 0.35,-0.471C0.33,-0.487 0.303,-0.496 0.267,-0.496C0.23,-0.496 0.201,-0.487 0.177,-0.47C0.154,-0.452 0.142,-0.43 0.142,-0.403C0.142,-0.38 0.15,-0.361 0.166,-0.346C0.181,-0.332 0.206,-0.32 0.24,-0.312L0.323,-0.292C0.369,-0.281 0.404,-0.263 0.427,-0.239C0.45,-0.215 0.461,-0.185 0.461,-0.148C0.461,-0.117 0.453,-0.09 0.435,-0.066C0.418,-0.042 0.394,-0.023 0.364,-0.009C0.333,0.005 0.297,0.012 0.257,0.012Z" style="fill:white;fill-rule:nonzero;"/>
                            </g>
                        </g>
                    </g>
                </g>
            </g>
        </g>
    </g>
</svg>
