<?xml version="1.0" encoding="UTF-8" standalone="no"?>
<!DOCTYPE svg PUBLIC "-//W3C//DTD SVG 1.1//EN" "http://www.w3.org/Graphics/SVG/1.1/DTD/svg11.dtd">
<svg width="100%" height="100%" viewBox="0 0 256 78" version="1.1" xmlns="http://www.w3.org/2000/svg" xmlns:xlink="http://www.w3.org/1999/xlink" xml:space="preserve" xmlns:serif="http://www.serif.com/" style="fill-rule:evenodd;clip-rule:evenodd;stroke-linejoin:round;stroke-miterlimit:2;">
    <g transform="matrix(1,0,0,1,-914.059,-693.534)">
        <g transform="matrix(1,0,0,1,29.822,26.4526)">
            <g transform="matrix(1,0,0,1,1012.24,706.082)">
                <g transform="matrix(1,0,0,1,-128,-39)">
                    <clipPath id="_clip1">
                        <rect x="0" y="0" width="256" height="78"/>
                    </clipPath>
                    <g clip-path="url(#_clip1)">
                        <g transform="matrix(0.524541,0,0,0.524541,40.3078,-252.795)">
                            <g transform="matrix(63.9361,0,0,63.9361,78.4571,578.413)">
                                <path d="M0.385,0.01C0.318,0.01 0.259,-0.005 0.206,-0.033C0.153,-0.062 0.111,-0.104 0.08,-0.159C0.05,-0.215 0.034,-0.283 0.034,-0.363C0.034,-0.444 0.05,-0.513 0.081,-0.568C0.112,-0.624 0.154,-0.666 0.208,-0.695C0.261,-0.723 0.32,-0.737 0.385,-0.737C0.43,-0.737 0.472,-0.731 0.51,-0.719C0.548,-0.707 0.582,-0.689 0.611,-0.666C0.64,-0.642 0.663,-0.613 0.681,-0.579C0.699,-0.545 0.71,-0.506 0.715,-0.462L0.515,-0.462C0.513,-0.478 0.509,-0.492 0.502,-0.504C0.496,-0.517 0.487,-0.528 0.477,-0.537C0.467,-0.546 0.454,-0.553 0.44,-0.558C0.425,-0.563 0.409,-0.565 0.391,-0.565C0.358,-0.565 0.33,-0.557 0.307,-0.541C0.284,-0.525 0.267,-0.502 0.255,-0.472C0.243,-0.442 0.237,-0.406 0.237,-0.363C0.237,-0.319 0.243,-0.282 0.255,-0.252C0.267,-0.222 0.285,-0.2 0.307,-0.185C0.33,-0.17 0.357,-0.162 0.39,-0.162C0.408,-0.162 0.424,-0.165 0.438,-0.169C0.453,-0.174 0.465,-0.181 0.476,-0.19C0.487,-0.2 0.496,-0.21 0.502,-0.223C0.509,-0.236 0.513,-0.25 0.516,-0.266L0.716,-0.266C0.714,-0.235 0.705,-0.203 0.69,-0.171C0.675,-0.139 0.654,-0.109 0.627,-0.082C0.599,-0.054 0.565,-0.032 0.525,-0.015C0.485,0.001 0.438,0.01 0.385,0.01Z" style="fill:rgb(0,29,41);fill-rule:nonzero;"/>
                            </g>
                            <g transform="matrix(63.9361,0,0,63.9361,126.253,578.413)">
                                <path d="M0.047,-0L0.047,-0.728L0.571,-0.728L0.571,-0.568L0.244,-0.568L0.244,-0.445L0.544,-0.445L0.544,-0.29L0.244,-0.29L0.244,-0.159L0.569,-0.159L0.569,0L0.047,0Z" style="fill:rgb(0,29,41);fill-rule:nonzero;"/>
                            </g>
                            <g transform="matrix(63.9361,0,0,63.9361,165.433,578.413)">
                                <path d="M0.047,-0L0.047,-0.728L0.36,-0.728C0.414,-0.728 0.462,-0.718 0.502,-0.698C0.543,-0.678 0.574,-0.65 0.597,-0.613C0.62,-0.576 0.631,-0.532 0.631,-0.48C0.631,-0.428 0.619,-0.384 0.596,-0.349C0.573,-0.313 0.541,-0.286 0.499,-0.268C0.457,-0.249 0.409,-0.24 0.354,-0.24L0.166,-0.24L0.166,-0.394L0.313,-0.394C0.337,-0.394 0.357,-0.396 0.374,-0.402C0.39,-0.408 0.403,-0.417 0.412,-0.43C0.42,-0.443 0.425,-0.46 0.425,-0.48C0.425,-0.501 0.42,-0.518 0.412,-0.531C0.403,-0.544 0.39,-0.554 0.374,-0.56C0.357,-0.566 0.337,-0.569 0.313,-0.569L0.244,-0.569L0.244,-0L0.047,-0ZM0.44,-0L0.263,-0.334L0.473,-0.334L0.655,0L0.44,0Z" style="fill:rgb(0,29,41);fill-rule:nonzero;"/>
                            </g>
                            <g transform="matrix(63.9361,0,0,63.9361,208.14,578.413)">
                                <path d="M0.027,-0.568L0.027,-0.728L0.659,-0.728L0.659,-0.568L0.442,-0.568L0.442,0L0.245,0L0.245,-0.568L0.027,-0.568Z" style="fill:rgb(0,29,41);fill-rule:nonzero;"/>
                            </g>
                            <g transform="matrix(63.9361,0,0,63.9361,252.034,578.413)">
                                <rect x="0.047" y="-0.728" width="0.197" height="0.728" style="fill:rgb(0,29,41);"/>
                            </g>
                            <g transform="matrix(63.9361,0,0,63.9361,270.64,578.413)">
                                <path d="M0.047,-0L0.047,-0.728L0.559,-0.728L0.559,-0.568L0.244,-0.568L0.244,-0.404L0.527,-0.404L0.527,-0.249L0.244,-0.249L0.244,0L0.047,0Z" style="fill:rgb(0,29,41);fill-rule:nonzero;"/>
                            </g>
                            <g transform="matrix(63.9361,0,0,63.9361,307.978,578.413)">
                                <rect x="0.047" y="-0.728" width="0.197" height="0.728" style="fill:rgb(0,29,41);"/>
                            </g>
                            <g transform="matrix(63.9361,0,0,63.9361,326.584,578.413)">
                                <path d="M0.047,-0L0.047,-0.728L0.571,-0.728L0.571,-0.568L0.244,-0.568L0.244,-0.445L0.544,-0.445L0.544,-0.29L0.244,-0.29L0.244,-0.159L0.569,-0.159L0.569,0L0.047,0Z" style="fill:rgb(0,29,41);fill-rule:nonzero;"/>
                            </g>
                            <g transform="matrix(63.9361,0,0,63.9361,365.764,578.413)">
                                <path d="M0.327,-0L0.128,-0L0.128,-0.168L0.319,-0.168C0.355,-0.168 0.386,-0.174 0.412,-0.185C0.437,-0.196 0.457,-0.216 0.47,-0.245C0.484,-0.273 0.49,-0.313 0.49,-0.363C0.49,-0.414 0.483,-0.454 0.47,-0.482C0.456,-0.511 0.436,-0.531 0.41,-0.542C0.384,-0.554 0.352,-0.56 0.313,-0.56L0.125,-0.56L0.125,-0.728L0.324,-0.728C0.399,-0.728 0.464,-0.713 0.518,-0.684C0.572,-0.655 0.614,-0.613 0.644,-0.559C0.674,-0.504 0.688,-0.439 0.688,-0.363C0.688,-0.288 0.674,-0.223 0.644,-0.168C0.615,-0.114 0.573,-0.072 0.519,-0.043C0.465,-0.014 0.401,-0 0.327,-0ZM0.244,-0.728L0.244,0L0.047,0L0.047,-0.728L0.244,-0.728Z" style="fill:rgb(0,29,41);fill-rule:nonzero;"/>
                            </g>
                            <g transform="matrix(38.1285,0,0,38.1285,78.4571,616.542)">
                                <path d="M0.096,-0L0.096,-0.728L0.52,-0.728L0.52,-0.665L0.166,-0.665L0.166,-0.389L0.486,-0.389L0.486,-0.327L0.166,-0.327L0.166,0L0.096,0Z" style="fill:rgb(0,29,41);fill-rule:nonzero;"/>
                            </g>
                            <g transform="matrix(38.1285,0,0,38.1285,100.891,616.542)">
                                <path d="M0.084,-0L0.084,-0.546L0.15,-0.546L0.15,0L0.084,0ZM0.117,-0.647C0.104,-0.647 0.093,-0.652 0.083,-0.661C0.073,-0.67 0.069,-0.681 0.069,-0.693C0.069,-0.706 0.073,-0.717 0.083,-0.726C0.093,-0.735 0.104,-0.74 0.117,-0.74C0.13,-0.74 0.142,-0.735 0.151,-0.726C0.161,-0.717 0.166,-0.706 0.166,-0.693C0.166,-0.681 0.161,-0.67 0.151,-0.661C0.142,-0.652 0.13,-0.647 0.117,-0.647Z" style="fill:rgb(0,29,41);fill-rule:nonzero;"/>
                            </g>
                            <g transform="matrix(38.1285,0,0,38.1285,109.79,616.542)">
                                <path d="M0.279,0.012C0.235,0.012 0.196,0 0.162,-0.024C0.128,-0.047 0.102,-0.08 0.083,-0.123C0.064,-0.165 0.055,-0.215 0.055,-0.271C0.055,-0.328 0.064,-0.377 0.083,-0.419C0.102,-0.462 0.129,-0.494 0.162,-0.518C0.196,-0.541 0.235,-0.553 0.279,-0.553C0.313,-0.553 0.34,-0.547 0.362,-0.535C0.384,-0.524 0.402,-0.509 0.416,-0.492C0.429,-0.475 0.44,-0.458 0.447,-0.441L0.452,-0.441L0.452,-0.728L0.518,-0.728L0.518,0L0.454,0L0.454,-0.102L0.447,-0.102C0.44,-0.085 0.429,-0.068 0.415,-0.05C0.402,-0.033 0.384,-0.018 0.362,-0.006C0.34,0.006 0.312,0.012 0.279,0.012ZM0.288,-0.048C0.323,-0.048 0.353,-0.058 0.377,-0.077C0.402,-0.096 0.421,-0.123 0.433,-0.157C0.446,-0.19 0.453,-0.229 0.453,-0.272C0.453,-0.315 0.446,-0.354 0.434,-0.387C0.421,-0.42 0.402,-0.446 0.377,-0.465C0.353,-0.484 0.323,-0.493 0.288,-0.493C0.252,-0.493 0.222,-0.483 0.197,-0.464C0.172,-0.444 0.154,-0.418 0.141,-0.385C0.128,-0.351 0.122,-0.314 0.122,-0.272C0.122,-0.23 0.128,-0.193 0.141,-0.159C0.154,-0.125 0.173,-0.098 0.198,-0.078C0.222,-0.058 0.252,-0.048 0.288,-0.048Z" style="fill:rgb(0,29,41);fill-rule:nonzero;"/>
                            </g>
                            <g transform="matrix(38.1285,0,0,38.1285,132.746,616.542)">
                                <path d="M0.271,0.007C0.234,0.007 0.201,-0.001 0.173,-0.016C0.145,-0.031 0.123,-0.054 0.107,-0.084C0.092,-0.113 0.084,-0.15 0.084,-0.193L0.084,-0.546L0.15,-0.546L0.15,-0.198C0.15,-0.153 0.162,-0.118 0.187,-0.092C0.213,-0.066 0.246,-0.053 0.288,-0.053C0.317,-0.053 0.342,-0.059 0.365,-0.072C0.388,-0.084 0.406,-0.101 0.419,-0.124C0.432,-0.147 0.439,-0.174 0.439,-0.206L0.439,-0.546L0.505,-0.546L0.505,0L0.441,0L0.441,-0.127L0.451,-0.127C0.436,-0.079 0.412,-0.045 0.38,-0.024C0.347,-0.003 0.311,0.007 0.271,0.007Z" style="fill:rgb(0,29,41);fill-rule:nonzero;"/>
                            </g>
                            <g transform="matrix(38.1285,0,0,38.1285,155.198,616.542)">
                                <path d="M0.296,0.01C0.249,0.01 0.207,-0.001 0.171,-0.025C0.135,-0.049 0.106,-0.082 0.086,-0.124C0.065,-0.167 0.055,-0.215 0.055,-0.271C0.055,-0.327 0.065,-0.376 0.086,-0.418C0.106,-0.461 0.135,-0.494 0.171,-0.517C0.207,-0.541 0.249,-0.553 0.296,-0.553C0.324,-0.553 0.349,-0.549 0.372,-0.541C0.396,-0.533 0.416,-0.522 0.434,-0.509C0.452,-0.495 0.467,-0.48 0.479,-0.464C0.491,-0.447 0.499,-0.431 0.505,-0.414L0.442,-0.395C0.439,-0.405 0.434,-0.415 0.426,-0.427C0.418,-0.438 0.408,-0.449 0.396,-0.459C0.384,-0.469 0.369,-0.477 0.353,-0.484C0.336,-0.49 0.317,-0.493 0.296,-0.493C0.259,-0.493 0.228,-0.483 0.202,-0.463C0.176,-0.443 0.156,-0.416 0.142,-0.382C0.129,-0.349 0.122,-0.312 0.122,-0.271C0.122,-0.23 0.129,-0.193 0.142,-0.16C0.156,-0.126 0.176,-0.099 0.202,-0.079C0.228,-0.059 0.259,-0.049 0.296,-0.049C0.317,-0.049 0.336,-0.053 0.353,-0.059C0.37,-0.066 0.385,-0.074 0.398,-0.084C0.41,-0.095 0.42,-0.106 0.428,-0.118C0.436,-0.129 0.441,-0.141 0.444,-0.151L0.507,-0.132C0.502,-0.114 0.493,-0.098 0.481,-0.081C0.469,-0.064 0.454,-0.049 0.436,-0.035C0.417,-0.021 0.397,-0.01 0.373,-0.002C0.35,0.006 0.324,0.01 0.296,0.01Z" style="fill:rgb(0,29,41);fill-rule:nonzero;"/>
                            </g>
                            <g transform="matrix(38.1285,0,0,38.1285,176.515,616.542)">
                                <path d="M0.084,-0L0.084,-0.546L0.15,-0.546L0.15,0L0.084,0ZM0.117,-0.647C0.104,-0.647 0.093,-0.652 0.083,-0.661C0.073,-0.67 0.069,-0.681 0.069,-0.693C0.069,-0.706 0.073,-0.717 0.083,-0.726C0.093,-0.735 0.104,-0.74 0.117,-0.74C0.13,-0.74 0.142,-0.735 0.151,-0.726C0.161,-0.717 0.166,-0.706 0.166,-0.693C0.166,-0.681 0.161,-0.67 0.151,-0.661C0.142,-0.652 0.13,-0.647 0.117,-0.647Z" style="fill:rgb(0,29,41);fill-rule:nonzero;"/>
                            </g>
                            <g transform="matrix(38.1285,0,0,38.1285,185.414,616.542)">
                                <path d="M0.227,0.012C0.194,0.012 0.164,0.006 0.137,-0.007C0.109,-0.02 0.088,-0.038 0.071,-0.063C0.055,-0.088 0.047,-0.118 0.047,-0.153C0.047,-0.18 0.052,-0.202 0.062,-0.221C0.073,-0.239 0.087,-0.254 0.106,-0.266C0.125,-0.278 0.147,-0.288 0.173,-0.295C0.198,-0.301 0.227,-0.307 0.257,-0.311C0.288,-0.314 0.313,-0.318 0.334,-0.32C0.355,-0.323 0.372,-0.328 0.383,-0.334C0.394,-0.34 0.4,-0.35 0.4,-0.364L0.4,-0.376C0.4,-0.401 0.395,-0.422 0.385,-0.439C0.375,-0.457 0.361,-0.47 0.342,-0.48C0.323,-0.489 0.299,-0.494 0.272,-0.494C0.246,-0.494 0.223,-0.49 0.204,-0.482C0.184,-0.474 0.168,-0.464 0.155,-0.451C0.142,-0.438 0.133,-0.424 0.126,-0.409L0.063,-0.43C0.075,-0.46 0.092,-0.484 0.114,-0.502C0.136,-0.52 0.16,-0.533 0.187,-0.541C0.215,-0.549 0.242,-0.553 0.271,-0.553C0.292,-0.553 0.314,-0.55 0.337,-0.545C0.36,-0.539 0.381,-0.529 0.4,-0.516C0.42,-0.502 0.436,-0.484 0.448,-0.46C0.46,-0.436 0.466,-0.407 0.466,-0.37L0.466,-0L0.401,-0L0.401,-0.086L0.396,-0.086C0.388,-0.07 0.377,-0.054 0.361,-0.039C0.346,-0.024 0.327,-0.011 0.305,-0.002C0.283,0.008 0.257,0.012 0.227,0.012ZM0.237,-0.047C0.27,-0.047 0.299,-0.054 0.323,-0.069C0.348,-0.084 0.366,-0.103 0.38,-0.128C0.393,-0.153 0.4,-0.18 0.4,-0.209L0.4,-0.287C0.395,-0.283 0.387,-0.279 0.376,-0.275C0.365,-0.271 0.352,-0.268 0.338,-0.266C0.324,-0.263 0.31,-0.261 0.295,-0.259C0.281,-0.257 0.269,-0.255 0.258,-0.254C0.227,-0.25 0.201,-0.244 0.18,-0.236C0.158,-0.228 0.142,-0.217 0.131,-0.203C0.119,-0.189 0.114,-0.171 0.114,-0.15C0.114,-0.128 0.119,-0.11 0.13,-0.094C0.14,-0.079 0.155,-0.067 0.174,-0.059C0.192,-0.051 0.213,-0.047 0.237,-0.047Z" style="fill:rgb(0,29,41);fill-rule:nonzero;"/>
                            </g>
                            <g transform="matrix(38.1285,0,0,38.1285,206.359,616.542)">
                                <path d="M0.084,-0L0.084,-0.546L0.148,-0.546L0.148,-0.461L0.153,-0.461C0.164,-0.489 0.183,-0.511 0.21,-0.528C0.237,-0.545 0.267,-0.553 0.301,-0.553L0.319,-0.553C0.325,-0.553 0.331,-0.553 0.335,-0.552L0.335,-0.486C0.333,-0.486 0.328,-0.487 0.32,-0.488C0.313,-0.489 0.305,-0.489 0.296,-0.489C0.268,-0.489 0.243,-0.483 0.221,-0.471C0.199,-0.459 0.181,-0.443 0.169,-0.422C0.156,-0.401 0.15,-0.377 0.15,-0.35L0.15,-0L0.084,-0Z" style="fill:rgb(0,29,41);fill-rule:nonzero;"/>
                            </g>
                            <g transform="matrix(38.1285,0,0,38.1285,220.657,616.542)">
                                <path d="M0.067,0.197L0.085,0.139L0.093,0.142C0.113,0.148 0.13,0.149 0.146,0.147C0.162,0.144 0.176,0.136 0.189,0.123C0.202,0.11 0.212,0.09 0.222,0.064L0.243,0.004L0.034,-0.546L0.106,-0.546L0.232,-0.203C0.244,-0.172 0.254,-0.141 0.262,-0.11C0.271,-0.079 0.28,-0.049 0.289,-0.019L0.266,-0.019C0.275,-0.049 0.284,-0.079 0.293,-0.11C0.302,-0.141 0.312,-0.172 0.324,-0.203L0.45,-0.546L0.522,-0.546L0.28,0.089C0.269,0.116 0.257,0.138 0.243,0.156C0.228,0.173 0.212,0.186 0.193,0.195C0.175,0.204 0.154,0.208 0.131,0.208C0.117,0.208 0.105,0.207 0.094,0.205C0.083,0.202 0.074,0.2 0.067,0.197Z" style="fill:rgb(0,29,41);fill-rule:nonzero;"/>
                            </g>
                            <g transform="matrix(38.1285,0,0,38.1285,258.28,616.542)">
                                <path d="M0.315,0.012C0.265,0.012 0.222,0.004 0.185,-0.012C0.149,-0.029 0.12,-0.052 0.099,-0.081C0.078,-0.111 0.066,-0.145 0.063,-0.184L0.134,-0.184C0.137,-0.155 0.146,-0.131 0.163,-0.111C0.179,-0.091 0.201,-0.076 0.227,-0.066C0.254,-0.056 0.283,-0.051 0.315,-0.051C0.351,-0.051 0.383,-0.057 0.411,-0.069C0.439,-0.081 0.461,-0.098 0.477,-0.119C0.493,-0.141 0.501,-0.166 0.501,-0.195C0.501,-0.219 0.494,-0.239 0.482,-0.256C0.469,-0.272 0.452,-0.286 0.429,-0.297C0.406,-0.309 0.38,-0.319 0.349,-0.327L0.263,-0.353C0.205,-0.37 0.161,-0.393 0.129,-0.424C0.098,-0.454 0.083,-0.493 0.083,-0.539C0.083,-0.578 0.093,-0.613 0.114,-0.643C0.135,-0.673 0.164,-0.696 0.2,-0.713C0.236,-0.729 0.276,-0.738 0.321,-0.738C0.367,-0.738 0.407,-0.729 0.442,-0.712C0.477,-0.696 0.505,-0.673 0.526,-0.644C0.546,-0.615 0.557,-0.582 0.559,-0.545L0.491,-0.545C0.487,-0.585 0.469,-0.617 0.438,-0.64C0.406,-0.664 0.367,-0.675 0.319,-0.675C0.286,-0.675 0.257,-0.67 0.231,-0.658C0.206,-0.647 0.186,-0.631 0.172,-0.611C0.158,-0.59 0.15,-0.567 0.15,-0.542C0.15,-0.517 0.157,-0.496 0.172,-0.479C0.186,-0.462 0.204,-0.448 0.226,-0.437C0.248,-0.427 0.271,-0.418 0.294,-0.411L0.37,-0.389C0.394,-0.383 0.417,-0.374 0.44,-0.364C0.464,-0.354 0.485,-0.341 0.504,-0.326C0.524,-0.311 0.539,-0.293 0.551,-0.271C0.563,-0.25 0.568,-0.224 0.568,-0.194C0.568,-0.155 0.558,-0.12 0.538,-0.088C0.518,-0.057 0.489,-0.033 0.451,-0.015C0.413,0.003 0.368,0.012 0.315,0.012Z" style="fill:rgb(0,29,41);fill-rule:nonzero;"/>
                            </g>
                            <g transform="matrix(38.1285,0,0,38.1285,282.371,616.542)">
                                <path d="M0.305,0.012C0.254,0.012 0.209,0 0.172,-0.024C0.135,-0.048 0.106,-0.081 0.086,-0.123C0.065,-0.166 0.055,-0.214 0.055,-0.27C0.055,-0.325 0.065,-0.374 0.085,-0.416C0.105,-0.459 0.133,-0.492 0.169,-0.517C0.205,-0.541 0.247,-0.553 0.294,-0.553C0.324,-0.553 0.353,-0.548 0.381,-0.537C0.409,-0.526 0.434,-0.509 0.456,-0.487C0.478,-0.465 0.495,-0.436 0.508,-0.402C0.521,-0.368 0.527,-0.328 0.527,-0.282L0.527,-0.253L0.099,-0.253L0.099,-0.31L0.491,-0.31L0.461,-0.288C0.461,-0.327 0.454,-0.362 0.441,-0.393C0.428,-0.424 0.409,-0.449 0.384,-0.467C0.359,-0.485 0.329,-0.493 0.294,-0.493C0.26,-0.493 0.23,-0.484 0.204,-0.466C0.178,-0.448 0.158,-0.424 0.143,-0.394C0.129,-0.364 0.122,-0.331 0.122,-0.295L0.122,-0.261C0.122,-0.219 0.129,-0.181 0.144,-0.149C0.159,-0.117 0.18,-0.092 0.208,-0.074C0.235,-0.057 0.268,-0.048 0.305,-0.048C0.331,-0.048 0.353,-0.052 0.372,-0.06C0.392,-0.068 0.408,-0.079 0.421,-0.092C0.434,-0.106 0.444,-0.121 0.451,-0.137L0.514,-0.117C0.505,-0.094 0.492,-0.073 0.473,-0.053C0.454,-0.034 0.431,-0.018 0.402,-0.006C0.374,0.006 0.341,0.012 0.305,0.012Z" style="fill:rgb(0,29,41);fill-rule:nonzero;"/>
                            </g>
                            <g transform="matrix(38.1285,0,0,38.1285,304.47,616.542)">
                                <path d="M0.084,-0L0.084,-0.546L0.148,-0.546L0.148,-0.461L0.153,-0.461C0.164,-0.489 0.183,-0.511 0.21,-0.528C0.237,-0.545 0.267,-0.553 0.301,-0.553L0.319,-0.553C0.325,-0.553 0.331,-0.553 0.335,-0.552L0.335,-0.486C0.333,-0.486 0.328,-0.487 0.32,-0.488C0.313,-0.489 0.305,-0.489 0.296,-0.489C0.268,-0.489 0.243,-0.483 0.221,-0.471C0.199,-0.459 0.181,-0.443 0.169,-0.422C0.156,-0.401 0.15,-0.377 0.15,-0.35L0.15,-0L0.084,-0Z" style="fill:rgb(0,29,41);fill-rule:nonzero;"/>
                            </g>
                            <g transform="matrix(38.1285,0,0,38.1285,318.768,616.542)">
                                <path d="M0.242,-0L0.034,-0.546L0.106,-0.546L0.232,-0.203C0.243,-0.172 0.253,-0.142 0.262,-0.111C0.271,-0.08 0.28,-0.051 0.29,-0.021L0.266,-0.021C0.276,-0.051 0.285,-0.08 0.294,-0.111C0.303,-0.142 0.313,-0.172 0.324,-0.203L0.45,-0.546L0.522,-0.546L0.314,0L0.242,0Z" style="fill:rgb(0,29,41);fill-rule:nonzero;"/>
                            </g>
                            <g transform="matrix(38.1285,0,0,38.1285,339.974,616.542)">
                                <path d="M0.084,-0L0.084,-0.546L0.15,-0.546L0.15,0L0.084,0ZM0.117,-0.647C0.104,-0.647 0.093,-0.652 0.083,-0.661C0.073,-0.67 0.069,-0.681 0.069,-0.693C0.069,-0.706 0.073,-0.717 0.083,-0.726C0.093,-0.735 0.104,-0.74 0.117,-0.74C0.13,-0.74 0.142,-0.735 0.151,-0.726C0.161,-0.717 0.166,-0.706 0.166,-0.693C0.166,-0.681 0.161,-0.67 0.151,-0.661C0.142,-0.652 0.13,-0.647 0.117,-0.647Z" style="fill:rgb(0,29,41);fill-rule:nonzero;"/>
                            </g>
                            <g transform="matrix(38.1285,0,0,38.1285,348.873,616.542)">
                                <path d="M0.296,0.01C0.249,0.01 0.207,-0.001 0.171,-0.025C0.135,-0.049 0.106,-0.082 0.086,-0.124C0.065,-0.167 0.055,-0.215 0.055,-0.271C0.055,-0.327 0.065,-0.376 0.086,-0.418C0.106,-0.461 0.135,-0.494 0.171,-0.517C0.207,-0.541 0.249,-0.553 0.296,-0.553C0.324,-0.553 0.349,-0.549 0.372,-0.541C0.396,-0.533 0.416,-0.522 0.434,-0.509C0.452,-0.495 0.467,-0.48 0.479,-0.464C0.491,-0.447 0.499,-0.431 0.505,-0.414L0.442,-0.395C0.439,-0.405 0.434,-0.415 0.426,-0.427C0.418,-0.438 0.408,-0.449 0.396,-0.459C0.384,-0.469 0.369,-0.477 0.353,-0.484C0.336,-0.49 0.317,-0.493 0.296,-0.493C0.259,-0.493 0.228,-0.483 0.202,-0.463C0.176,-0.443 0.156,-0.416 0.142,-0.382C0.129,-0.349 0.122,-0.312 0.122,-0.271C0.122,-0.23 0.129,-0.193 0.142,-0.16C0.156,-0.126 0.176,-0.099 0.202,-0.079C0.228,-0.059 0.259,-0.049 0.296,-0.049C0.317,-0.049 0.336,-0.053 0.353,-0.059C0.37,-0.066 0.385,-0.074 0.398,-0.084C0.41,-0.095 0.42,-0.106 0.428,-0.118C0.436,-0.129 0.441,-0.141 0.444,-0.151L0.507,-0.132C0.502,-0.114 0.493,-0.098 0.481,-0.081C0.469,-0.064 0.454,-0.049 0.436,-0.035C0.417,-0.021 0.397,-0.01 0.373,-0.002C0.35,0.006 0.324,0.01 0.296,0.01Z" style="fill:rgb(0,29,41);fill-rule:nonzero;"/>
                            </g>
                            <g transform="matrix(38.1285,0,0,38.1285,370.19,616.542)">
                                <path d="M0.305,0.012C0.254,0.012 0.209,0 0.172,-0.024C0.135,-0.048 0.106,-0.081 0.086,-0.123C0.065,-0.166 0.055,-0.214 0.055,-0.27C0.055,-0.325 0.065,-0.374 0.085,-0.416C0.105,-0.459 0.133,-0.492 0.169,-0.517C0.205,-0.541 0.247,-0.553 0.294,-0.553C0.324,-0.553 0.353,-0.548 0.381,-0.537C0.409,-0.526 0.434,-0.509 0.456,-0.487C0.478,-0.465 0.495,-0.436 0.508,-0.402C0.521,-0.368 0.527,-0.328 0.527,-0.282L0.527,-0.253L0.099,-0.253L0.099,-0.31L0.491,-0.31L0.461,-0.288C0.461,-0.327 0.454,-0.362 0.441,-0.393C0.428,-0.424 0.409,-0.449 0.384,-0.467C0.359,-0.485 0.329,-0.493 0.294,-0.493C0.26,-0.493 0.23,-0.484 0.204,-0.466C0.178,-0.448 0.158,-0.424 0.143,-0.394C0.129,-0.364 0.122,-0.331 0.122,-0.295L0.122,-0.261C0.122,-0.219 0.129,-0.181 0.144,-0.149C0.159,-0.117 0.18,-0.092 0.208,-0.074C0.235,-0.057 0.268,-0.048 0.305,-0.048C0.331,-0.048 0.353,-0.052 0.372,-0.06C0.392,-0.068 0.408,-0.079 0.421,-0.092C0.434,-0.106 0.444,-0.121 0.451,-0.137L0.514,-0.117C0.505,-0.094 0.492,-0.073 0.473,-0.053C0.454,-0.034 0.431,-0.018 0.402,-0.006C0.374,0.006 0.341,0.012 0.305,0.012Z" style="fill:rgb(0,29,41);fill-rule:nonzero;"/>
                            </g>
                            <g transform="matrix(38.1285,0,0,38.1285,392.289,616.542)">
                                <path d="M0.257,0.012C0.221,0.012 0.19,0.006 0.162,-0.005C0.134,-0.015 0.112,-0.031 0.094,-0.052C0.076,-0.074 0.064,-0.099 0.057,-0.13L0.12,-0.145C0.128,-0.112 0.144,-0.088 0.167,-0.071C0.191,-0.055 0.22,-0.047 0.257,-0.047C0.298,-0.047 0.331,-0.057 0.356,-0.075C0.38,-0.094 0.393,-0.117 0.393,-0.145C0.393,-0.167 0.386,-0.185 0.371,-0.2C0.356,-0.214 0.334,-0.225 0.304,-0.232L0.215,-0.254C0.169,-0.265 0.133,-0.283 0.11,-0.307C0.087,-0.332 0.075,-0.362 0.075,-0.399C0.075,-0.429 0.083,-0.456 0.1,-0.479C0.116,-0.502 0.139,-0.521 0.168,-0.534C0.197,-0.547 0.229,-0.553 0.266,-0.553C0.301,-0.553 0.33,-0.548 0.355,-0.537C0.38,-0.527 0.4,-0.512 0.416,-0.493C0.432,-0.473 0.444,-0.451 0.453,-0.424L0.392,-0.409C0.384,-0.434 0.369,-0.454 0.35,-0.471C0.33,-0.487 0.303,-0.496 0.267,-0.496C0.23,-0.496 0.201,-0.487 0.177,-0.47C0.154,-0.452 0.142,-0.43 0.142,-0.403C0.142,-0.38 0.15,-0.361 0.166,-0.346C0.181,-0.332 0.206,-0.32 0.24,-0.312L0.323,-0.292C0.369,-0.281 0.404,-0.263 0.427,-0.239C0.45,-0.215 0.461,-0.185 0.461,-0.148C0.461,-0.117 0.453,-0.09 0.435,-0.066C0.418,-0.042 0.394,-0.023 0.364,-0.009C0.333,0.005 0.297,0.012 0.257,0.012Z" style="fill:rgb(0,29,41);fill-rule:nonzero;"/>
                            </g>
                        </g>
                        <path d="M58.676,17.919C62.556,34.106 61.341,51.469 53.757,70.302L21.959,78C29.784,63.708 31.838,45.463 27.757,23.014L58.676,17.919ZM35.237,52.466L54.065,48.737C54.636,48.624 55.008,48.069 54.895,47.498C54.782,46.927 54.227,46.556 53.656,46.669L34.828,50.398C34.257,50.511 33.885,51.066 33.998,51.637C34.112,52.207 34.667,52.579 35.237,52.466ZM34.806,59.123L52.639,55.691C53.21,55.581 53.585,55.027 53.475,54.456C53.365,53.885 52.812,53.51 52.241,53.62L34.408,57.053C33.837,57.163 33.462,57.716 33.572,58.287C33.682,58.858 34.235,59.233 34.806,59.123ZM35.743,46.026L54.971,42.297C55.542,42.186 55.916,41.633 55.805,41.061C55.694,40.49 55.14,40.117 54.569,40.227L35.342,43.957C34.771,44.068 34.397,44.621 34.508,45.192C34.619,45.764 35.172,46.137 35.743,46.026ZM41.597,32.042L56.039,29.41C56.611,29.306 56.991,28.757 56.887,28.184C56.782,27.612 56.233,27.232 55.661,27.336L41.219,29.968C40.647,30.073 40.267,30.622 40.371,31.194C40.475,31.766 41.025,32.146 41.597,32.042ZM35.742,39.723L56.024,35.813C56.595,35.703 56.969,35.15 56.859,34.579C56.749,34.007 56.196,33.633 55.625,33.743L35.343,37.653C34.772,37.763 34.398,38.316 34.508,38.887C34.618,39.459 35.171,39.833 35.742,39.723ZM33.763,65.495L50.906,62.255C51.478,62.147 51.854,61.595 51.746,61.023C51.638,60.451 51.086,60.075 50.515,60.183L33.371,63.423C32.799,63.531 32.423,64.083 32.531,64.655C32.639,65.227 33.191,65.603 33.763,65.495Z" style="fill:rgb(77,203,133);"/>
                        <path d="M16.865,47.432C17.727,37.04 15,23.945 7.027,11.595L42.162,4.919C41.443,2.926 40.544,1.224 39.351,-0L0,7.027C7.383,19.883 14.148,33.912 16.865,47.432Z" style="fill:rgb(11,129,73);"/>
                        <path d="M51.297,14.405C50.885,12.035 49.939,9.931 48.486,8.081L13.703,14.405C19.571,26.382 23.229,38.769 24.243,51.649C25.287,41.195 24.565,30.455 21.432,19.324L51.297,14.405Z" style="fill:rgb(47,176,114);"/>
                        <g>
                            <path d="M41.408,31.005L55.85,28.373" style="fill:none;"/>
                            <path d="M35.543,38.688L55.824,34.778" style="fill:none;"/>
                            <path d="M35.543,44.992L54.77,41.262" style="fill:none;"/>
                            <path d="M35.032,51.432L53.861,47.703" style="fill:none;"/>
                            <path d="M34.607,58.088L52.44,54.655" style="fill:none;"/>
                            <path d="M33.567,64.459L50.711,61.219" style="fill:none;"/>
                        </g>
                    </g>
                </g>
            </g>
        </g>
    </g>
</svg>
