<?xml version="1.0" encoding="UTF-8" standalone="no"?>
<!DOCTYPE svg PUBLIC "-//W3C//DTD SVG 1.1//EN" "http://www.w3.org/Graphics/SVG/1.1/DTD/svg11.dtd">
<svg width="100%" height="100%" viewBox="0 0 71 78" version="1.1" xmlns="http://www.w3.org/2000/svg" xmlns:xlink="http://www.w3.org/1999/xlink" xml:space="preserve" xmlns:serif="http://www.serif.com/" style="fill-rule:evenodd;clip-rule:evenodd;stroke-linejoin:round;stroke-miterlimit:2;">
    <g transform="matrix(1,0,0,1,-828.432,-543.803)">
        <g transform="matrix(1,0,0,1,29.822,26.4526)">
            <g transform="matrix(1,0,0,1,926.61,556.35)">
                <g transform="matrix(1,0,0,1,-128,-39)">
                    <clipPath id="_clip1">
                        <rect x="0" y="0" width="256" height="78"/>
                    </clipPath>
                    <g clip-path="url(#_clip1)">
                        <path d="M58.676,17.919C62.556,34.106 61.341,51.469 53.757,70.302L21.959,78C29.784,63.708 31.838,45.463 27.757,23.014L58.676,17.919ZM35.237,52.466L54.065,48.737C54.636,48.624 55.008,48.069 54.895,47.498C54.782,46.927 54.227,46.556 53.656,46.669L34.828,50.398C34.257,50.511 33.885,51.066 33.998,51.637C34.112,52.207 34.667,52.579 35.237,52.466ZM34.806,59.123L52.639,55.691C53.21,55.581 53.585,55.027 53.475,54.456C53.365,53.885 52.812,53.51 52.241,53.62L34.408,57.053C33.837,57.163 33.462,57.716 33.572,58.287C33.682,58.858 34.235,59.233 34.806,59.123ZM35.743,46.026L54.971,42.297C55.542,42.186 55.916,41.633 55.805,41.061C55.694,40.49 55.14,40.117 54.569,40.227L35.342,43.957C34.771,44.068 34.397,44.621 34.508,45.192C34.619,45.764 35.172,46.137 35.743,46.026ZM41.597,32.042L56.039,29.41C56.611,29.306 56.991,28.757 56.887,28.184C56.782,27.612 56.233,27.232 55.661,27.336L41.219,29.968C40.647,30.073 40.267,30.622 40.371,31.194C40.475,31.766 41.025,32.146 41.597,32.042ZM35.742,39.723L56.024,35.813C56.595,35.703 56.969,35.15 56.859,34.579C56.749,34.007 56.196,33.633 55.625,33.743L35.343,37.653C34.772,37.763 34.398,38.316 34.508,38.887C34.618,39.459 35.171,39.833 35.742,39.723ZM33.763,65.495L50.906,62.255C51.478,62.147 51.854,61.595 51.746,61.023C51.638,60.451 51.086,60.075 50.515,60.183L33.371,63.423C32.799,63.531 32.423,64.083 32.531,64.655C32.639,65.227 33.191,65.603 33.763,65.495Z" style="fill:rgb(77,203,133);"/>
                        <path d="M16.865,47.432C17.727,37.04 15,23.945 7.027,11.595L42.162,4.919C41.443,2.926 40.544,1.224 39.351,-0L0,7.027C7.383,19.883 14.148,33.912 16.865,47.432Z" style="fill:rgb(11,129,73);"/>
                        <path d="M51.297,14.405C50.885,12.035 49.939,9.931 48.486,8.081L13.703,14.405C19.571,26.382 23.229,38.769 24.243,51.649C25.287,41.195 24.565,30.455 21.432,19.324L51.297,14.405Z" style="fill:rgb(47,176,114);"/>
                        <g>
                            <path d="M41.408,31.005L55.85,28.373" style="fill:none;"/>
                            <path d="M35.543,38.688L55.824,34.778" style="fill:none;"/>
                            <path d="M35.543,44.992L54.77,41.262" style="fill:none;"/>
                            <path d="M35.032,51.432L53.861,47.703" style="fill:none;"/>
                            <path d="M34.607,58.088L52.44,54.655" style="fill:none;"/>
                            <path d="M33.567,64.459L50.711,61.219" style="fill:none;"/>
                        </g>
                    </g>
                </g>
            </g>
        </g>
    </g>
</svg>
