<?xml version="1.0" encoding="UTF-8" standalone="no"?>
<!DOCTYPE svg PUBLIC "-//W3C//DTD SVG 1.1//EN" "http://www.w3.org/Graphics/SVG/1.1/DTD/svg11.dtd">
<svg width="100%" height="100%" viewBox="0 0 88 127" version="1.1" xmlns="http://www.w3.org/2000/svg" xmlns:xlink="http://www.w3.org/1999/xlink" xml:space="preserve" xmlns:serif="http://www.serif.com/" style="fill-rule:evenodd;clip-rule:evenodd;stroke-linejoin:round;stroke-miterlimit:2;">
    <g transform="matrix(1,0,0,1,-1648.84,-795.3)">
        <g transform="matrix(1,0,0,1,1786.34,858.8)">
            <g transform="matrix(1,0,0,1,-137.5,-63.5)">
                <clipPath id="_clip1">
                    <rect x="0" y="0" width="275" height="127"/>
                </clipPath>
                <g clip-path="url(#_clip1)">
                    <g>
                        <path d="M27.069,82.605C19.076,79.941 10.685,72.401 6.433,65.399C-11.085,36.542 9.296,0.457 41.98,0.004C64.175,-0.28 80.304,15.141 84.528,33.283C87.079,44.281 84.726,56.187 79.765,64.407C76.477,69.821 75.088,70.87 71.233,74.81C70.241,75.802 67.18,78.07 65.847,78.892C63.693,80.253 62.021,81.046 59.583,82.209L59.838,85.61C60.546,85.695 64.317,84.561 65.394,84.306C67.293,83.881 69.249,83.541 71.233,83.286C73.671,82.946 82.26,82.237 84.386,82.861L84.414,86.716C67.151,86.205 51.731,90.769 38.805,101.456C37.643,102.42 36.48,103.298 35.517,104.234C31.406,108.202 27.608,112.568 24.575,117.472C21.91,121.809 23.526,120.987 18.055,120.93L19.529,118.18C16.241,118.067 12.244,122.574 5.384,120.278C4.307,119.938 2.153,119.002 1.359,118.492L1.359,114.58C4.477,114.58 6.49,118.124 11.706,116.706C13.321,116.253 14.654,115.346 16.269,114.807C18.254,114.127 19.926,114.042 22.109,114.127C22.392,113.475 23.526,111.887 23.951,111.349C20.209,109.223 15.872,112.284 12.811,113.163C8.134,114.524 4.959,112.851 1.359,111.235L1.359,107.295C2.89,107.267 5.441,108.968 7.198,109.421C9.806,110.101 11.592,109.506 13.69,108.599C19.359,106.161 20.89,106.275 26.474,107.976C27.154,107.465 27.891,106.558 28.345,105.708C26.106,105.198 24.66,103.837 22.024,103.497C14.087,102.448 14.37,110.045 1.359,103.95L1.387,99.925C5.498,100.549 7.567,104.064 13.123,101.569C17.998,99.358 19.841,98.791 25.68,100.322L25.907,97.572C24.546,96.382 21.655,95.9 19.416,96.183C17.063,96.495 15.674,97.572 13.661,98.281C9.75,99.698 4.534,98.82 1.359,96.58L1.359,92.64C3.032,92.753 5.271,94.227 6.943,94.738C13.576,96.75 16.383,89.465 26.247,93.264L26.446,90.514C25.227,89.465 22.08,88.672 20.011,88.813C15.532,89.182 10.487,94.879 1.359,89.267L1.359,85.355C2.833,85.327 5.498,87.084 7.142,87.509C14.115,89.324 15.816,81.897 26.814,86.205L27.069,82.605ZM33.306,36.713L53.375,36.713C53.063,31.638 48.698,27.557 43.397,27.528C37.954,27.528 33.674,31.638 33.306,36.713ZM54.055,63.046L53.517,55.478L38.238,55.478C39.428,56.016 40.817,56.81 42.065,57.377L50.002,61.147C51.362,61.771 52.723,62.536 54.055,63.046ZM41.384,51.538L45.268,51.509L45.324,41.333L45.324,40.794L44.616,40.624L42.376,40.653L41.384,40.653L41.384,51.538ZM28.713,62.394L29.224,55.535L26.304,55.45L26.332,51.538L29.394,51.538L29.394,40.624L26.361,40.653L26.304,36.741L29.365,36.713C29.819,29.824 34.893,24.637 41.384,23.815L41.384,20.13L45.324,20.073L45.324,23.673C46.742,24.325 48.329,24.382 50.002,25.261C54.197,27.472 56.918,31.412 57.343,36.656L60.376,36.713L60.405,40.653L57.428,40.653C57.173,41.56 57.202,50.432 57.4,51.538L60.405,51.538L60.405,55.478L57.513,55.478L57.939,61.572C59.044,61.062 61.822,57.916 62.616,56.725C67.18,49.809 68.455,41.701 65.252,33.793C56.89,13.043 27.211,13.752 19.898,34.955C17.29,42.552 18.764,51.538 23.668,57.661C24.858,59.135 26.984,61.516 28.713,62.394ZM49.265,51.481L53.375,51.538L53.375,40.653L49.265,40.653L49.265,51.481ZM30.131,94.313C32.257,95.22 34.524,96.552 36.594,97.374C38.011,97.941 39.712,95.191 42.433,94.001C41.838,93.377 30.981,88.388 30.584,88.388L30.131,94.313ZM32.54,63.5C34.439,64.35 53.772,73.761 54.934,74.045L54.452,67.582L33.05,57.462L32.54,63.5ZM28.005,70.501L28.345,66.873C25.397,65.711 21.372,61.346 19.416,58.483C7.369,40.738 19.359,15.254 41.98,14.659C55.756,14.319 65.989,23.418 69.419,33.651C73.047,44.479 69.787,56.782 61.595,63.755L58.364,66.335L58.591,69.821C61.198,69.283 67.066,63.131 68.852,60.353C83.252,38.13 66.726,10.719 41.98,11.399C26.984,11.824 15.306,22.596 12.329,35.068C8.361,51.821 17.772,65.399 28.005,70.501ZM29.535,102.079C31.095,102.788 31.576,102.816 33.306,101.002C33.362,100.974 33.476,100.832 33.532,100.776C33.816,100.379 33.504,100.946 33.816,100.322C32.682,99.982 30.896,98.735 29.791,98.65L29.535,102.079ZM31.746,73.761C33.702,74.64 35.602,75.632 37.614,76.568C40.562,77.9 54.169,84.618 55.813,85.072L55.104,78.665L32.2,67.837L31.746,73.761ZM27.438,78.467L27.693,75.065C21.598,72.741 14.965,66.079 11.734,60.297C7.709,53.097 6.008,44.394 8.021,34.983C13.123,10.946 42.745,-2.179 64.969,14.914C69.986,18.769 74.776,24.977 77.214,33.538C81.268,47.711 75.372,63.075 63.92,71.522C62.332,72.713 60.773,73.421 59.044,74.612L59.214,77.957C62.276,77.106 67.435,72.911 69.306,71.267C72.083,68.857 74.748,65.059 76.732,61.771C81.154,54.372 82.855,43.374 80.616,33.764C76.846,17.692 61.935,3.661 42.178,3.944C12.272,4.398 -5.642,36.939 9.324,62.536C12.386,67.78 16.865,72.372 21.74,75.49C23.072,76.341 25.709,77.957 27.438,78.467ZM33.334,51.538L37.302,51.538C37.671,50.262 37.444,42.552 37.416,40.653L33.334,40.653L33.334,51.538ZM30.953,84.023C33.334,85.327 39.088,87.878 41.895,89.21C44.276,90.344 46.033,91.705 47.45,90.968C48.924,90.202 51.334,88.813 52.95,88.388C52.921,88.331 52.865,88.218 52.836,88.246L47.677,85.667C45.806,84.816 44.021,83.909 42.178,83.087C40.562,82.35 32.37,78.155 31.406,78.098L30.953,84.023Z" style="fill:white;"/>
                        <path d="M25.879,120.958C31.548,120.987 29.791,121.61 32.313,118.152C34.383,115.374 36.934,112.199 39.457,109.96C40.307,109.166 41.271,108.316 42.093,107.55C44.446,105.396 48.414,102.76 51.192,101.144C60.603,95.701 71.573,93.094 84.386,93.547L84.386,89.607C68.682,88.672 52.128,94.029 41.611,102.845L35.687,108.202C33.787,110.045 31.888,112.029 30.358,114.183C29.195,115.827 26.644,119.031 25.879,120.958Z" style="fill:white;"/>
                        <path d="M33.929,120.958C34.865,120.958 38.153,121.27 38.89,120.703L44.984,114.098C56.833,103.922 67.18,99.897 84.414,100.35L84.386,96.41C69.277,95.787 59.044,99.216 47.876,106.672C45.324,108.372 42.405,110.98 40.279,113.191C38.465,115.062 34.921,118.832 33.929,120.958Z" style="fill:white;"/>
                        <path d="M42.461,120.901C43.539,121.072 44.701,120.958 45.806,120.987C47.706,120.987 47.394,121.128 48.386,120.136C49.038,119.484 49.576,119.087 50.228,118.52C50.965,117.897 51.391,117.443 52.184,116.848C54.65,114.92 57.513,113.05 60.773,111.519C68.172,108.032 75.003,106.643 84.414,107.182L84.414,103.44L83.904,103.242C81.296,102.618 73.104,103.582 70.808,104.035C59.016,106.416 50.002,112.171 42.461,120.901Z" style="fill:white;"/>
                        <path d="M51.872,120.93C53.346,121.043 57.542,121.355 58.704,120.561C59.328,120.136 59.639,119.909 60.291,119.513C68.03,114.807 75.032,113.588 84.414,114.013L84.414,110.045C71.488,109.506 61.17,112.539 51.872,120.93Z" style="fill:white;"/>
                        <path d="M64.458,120.958L84.414,120.987L84.386,117.33C82.09,116.593 75.627,117.33 73.274,117.783C71.687,118.095 70.213,118.52 68.71,119.059C67.888,119.342 65.139,120.335 64.458,120.958Z" style="fill:white;"/>
                    </g>
                </g>
            </g>
        </g>
    </g>
</svg>
